<?xml version="1.0" standalone="no"?>
<!DOCTYPE svg PUBLIC "-//W3C//DTD SVG 20010904//EN"
 "http://www.w3.org/TR/2001/REC-SVG-20010904/DTD/svg10.dtd">
<svg version="1.0" xmlns="http://www.w3.org/2000/svg"
 width="1306.000000pt" height="1306.000000pt" viewBox="0 0 1306.000000 1306.000000"
 preserveAspectRatio="xMidYMid meet">
<metadata>
Created by potrace 1.11, written by Peter Selinger 2001-2013
</metadata>
<g transform="translate(0.000000,1306.000000) scale(0.100000,-0.100000)"
fill="#000000" stroke="none">
<path d="M16 8012 c-9 -2 -15 -9 -13 -15 2 -8 37 -13 97 -15 111 -3 141 -15
156 -62 14 -43 17 -1946 3 -1994 -17 -58 -33 -64 -171 -65 -73 -1 -88 -4 -88
-17 0 -14 54 -15 513 -11 281 2 526 6 542 10 17 4 53 12 80 19 195 43 374 161
472 308 74 111 102 282 68 421 -66 271 -323 490 -613 523 -26 3 -42 16 -21 17
53 3 151 40 213 80 228 152 271 418 97 602 -96 101 -287 177 -488 193 -88 7
-814 12 -847 6z m797 -66 c159 -22 295 -116 356 -245 22 -49 26 -69 26 -156 0
-94 -2 -104 -34 -167 -78 -157 -231 -238 -447 -238 -90 0 -92 -1 -96 -25 -3
-14 -2 -25 1 -26 3 0 65 -2 136 -4 155 -5 255 -28 357 -82 119 -64 218 -176
268 -302 31 -80 48 -190 43 -278 -15 -254 -178 -446 -435 -512 -60 -16 -113
-19 -301 -20 l-227 -2 22 43 23 43 0 945 c-1 935 -1 945 -21 991 l-21 45 153
-2 c83 -1 172 -5 197 -8z"/>
<path d="M2394 8011 c-2 -2 -4 -10 -4 -17 0 -8 24 -12 81 -13 91 -1 128 -14
146 -52 9 -19 13 -228 16 -865 1 -461 6 -852 11 -869 14 -57 66 -152 108 -200
69 -78 200 -153 298 -170 214 -38 394 -17 525 60 62 36 128 107 159 171 57
116 58 127 60 1004 2 443 5 812 7 821 19 66 78 100 175 101 35 1 64 5 64 10 0
4 0 11 0 15 0 5 -537 8 -582 4 -5 -1 -8 -7 -8 -14 0 -10 20 -14 78 -15 92 -2
115 -6 143 -26 35 -24 49 -52 57 -113 4 -32 7 -407 6 -833 -1 -711 -2 -780
-19 -835 -25 -85 -47 -125 -100 -179 -85 -88 -233 -136 -399 -131 -188 7 -301
92 -335 253 -15 70 -16 1750 -1 1803 14 50 44 60 176 62 86 2 109 5 109 16 0
12 -62 14 -383 15 -211 1 -386 -1 -388 -3z"/>
<path d="M4792 8012 c-73 -5 -45 -27 39 -30 90 -3 135 -17 151 -45 9 -17 12
-232 14 -857 1 -745 3 -841 18 -894 74 -263 340 -410 678 -375 244 26 389 141
445 352 15 55 17 154 18 872 1 582 5 822 13 851 20 70 63 93 173 95 56 1 69 4
67 16 -3 12 -42 14 -248 14 -364 0 -350 1 -350 -15 0 -12 18 -15 86 -15 102 0
148 -19 179 -71 20 -34 20 -49 20 -860 l0 -825 -23 -72 c-47 -151 -173 -253
-345 -280 -23 -4 -85 -7 -137 -6 -194 2 -311 87 -344 251 -8 41 -12 310 -11
933 0 951 -3 899 54 921 14 5 74 9 133 9 86 1 108 3 108 15 0 9 -11 14 -27 14
-166 3 -678 4 -711 2z"/>
<path d="M7127 8008 c-25 -15 11 -26 95 -30 75 -3 91 -6 110 -26 l23 -23 0
-992 c0 -933 -1 -995 -18 -1020 -25 -38 -78 -57 -158 -57 -57 0 -67 -3 -63
-15 5 -13 45 -15 276 -15 211 0 269 3 266 13 -3 7 -34 14 -85 18 -83 6 -112
18 -141 61 -16 21 -17 104 -19 941 -1 553 2 917 8 917 5 0 9 -4 9 -9 0 -5 81
-157 181 -338 100 -180 197 -357 217 -393 19 -36 80 -146 135 -245 55 -99 118
-214 140 -255 22 -41 51 -92 64 -112 13 -21 23 -40 23 -43 0 -3 20 -40 44 -83
24 -42 60 -108 81 -147 21 -38 53 -97 72 -129 19 -32 55 -103 81 -157 26 -54
51 -97 57 -95 7 2 10 360 10 1042 0 998 1 1042 19 1082 25 55 79 82 164 82 48
0 62 3 62 15 0 16 -7 16 -335 16 -288 0 -295 0 -295 -15 0 -11 21 -14 93 -15
126 -2 154 -9 199 -48 36 -32 39 -97 36 -843 l-3 -725 -22 45 c-12 25 -41 79
-63 120 -40 71 -187 341 -262 480 -77 143 -407 749 -438 805 -18 33 -49 89
-68 125 -19 36 -37 67 -38 69 -6 7 -446 6 -457 -1z"/>
<path d="M10383 8009 c-13 -4 -189 -389 -283 -620 -10 -26 -28 -66 -39 -90
-11 -24 -56 -129 -101 -234 -136 -314 -211 -488 -230 -530 -10 -22 -30 -68
-44 -102 -14 -35 -37 -86 -50 -115 -13 -29 -48 -109 -77 -178 -95 -223 -139
-280 -220 -280 -25 0 -36 -4 -36 -15 0 -13 38 -15 279 -15 231 0 278 2 278 14
0 11 -24 15 -108 17 -92 4 -112 7 -140 27 -30 22 -39 39 -46 88 -4 22 11 67
47 145 13 30 48 109 77 177 l53 122 600 -2 600 -3 39 -95 c139 -339 166 -398
192 -427 l28 -33 -116 0 c-96 0 -116 -3 -116 -15 0 -13 39 -15 290 -15 251 0
290 2 290 15 0 10 -10 15 -27 16 -72 2 -112 37 -149 131 -12 29 -74 181 -139
338 -64 157 -150 368 -191 470 -41 102 -79 194 -84 205 -25 53 -330 807 -338
836 -5 19 -10 63 -11 99 -1 36 -4 66 -5 67 -5 5 -208 7 -223 2z m2 -195 c3
-26 34 -112 67 -193 267 -649 464 -1136 462 -1139 -3 -5 -1134 -5 -1139 -1 -2
3 362 844 491 1134 46 103 85 206 87 226 3 37 25 18 32 -27z"/>
<path d="M12283 8012 c-27 -2 -43 -8 -43 -16 0 -10 24 -14 94 -14 105 -2 139
-11 157 -44 10 -18 13 -230 14 -993 0 -533 -2 -987 -6 -1008 -12 -68 -28 -75
-176 -76 -78 -1 -91 -3 -87 -16 5 -13 58 -15 393 -15 338 0 388 2 388 15 0 12
-18 15 -91 16 -50 1 -95 1 -99 0 -21 -3 -67 32 -74 57 -4 15 -7 469 -7 1009 0
1064 -2 1026 53 1040 14 4 68 7 118 7 70 0 94 4 98 15 3 7 4 16 1 18 -5 5
-672 9 -733 5z"/>
<path d="M9621 5275 c-46 -118 -82 -217 -80 -220 11 -11 31 16 47 66 l19 54
96 3 96 3 21 -60 c12 -33 28 -62 36 -65 8 -3 14 -3 14 1 0 6 -59 160 -128 336
l-38 98 -83 -216z m130 28 l38 -93 -83 0 -84 0 42 106 c22 58 42 100 45 93 2
-8 21 -55 42 -106z"/>
<path d="M12145 5279 c-44 -115 -81 -213 -83 -218 -1 -4 4 -8 11 -8 8 0 24 28
38 64 l24 64 94 -3 95 -3 24 -63 c17 -43 28 -60 35 -53 6 6 -14 71 -63 198
-40 103 -78 198 -84 209 -10 19 -21 -5 -91 -187z m139 -1 l25 -68 -79 0 c-44
0 -80 1 -80 3 0 1 9 27 21 57 11 30 28 77 37 104 l17 49 17 -39 c9 -22 28 -69
42 -106z"/>
<path d="M5979 5466 c-1 -15 -1 -388 0 -402 1 -9 74 -11 173 -5 30 2 79 54 87
93 11 49 -16 110 -57 129 l-30 13 19 24 c34 43 20 118 -27 143 -30 16 -164 20
-165 5z m155 -37 c33 -26 35 -75 6 -107 -17 -18 -32 -22 -78 -22 l-58 0 2 63
c1 34 2 68 3 75 2 21 94 15 125 -9z m35 -174 c53 -27 61 -103 15 -146 -20 -18
-38 -23 -99 -26 -55 -2 -75 0 -76 10 -1 6 -2 49 -3 94 l-1 83 68 0 c40 0 80
-6 96 -15z"/>
<path d="M6520 5471 c0 -5 25 -53 55 -107 l55 -97 3 -104 c3 -140 21 -139 27
2 5 109 6 111 51 190 70 122 70 122 53 122 -8 0 -37 -40 -65 -89 -58 -101 -51
-102 -110 10 -29 57 -69 99 -69 73z"/>
<path d="M7674 5460 c-55 -27 -81 -57 -103 -116 -55 -149 43 -294 199 -294
113 0 199 70 216 174 l5 36 -86 0 c-65 0 -86 -3 -83 -12 3 -8 29 -14 70 -16
62 -3 65 -4 61 -26 -7 -36 -60 -95 -101 -112 -70 -29 -159 -15 -216 35 -33 29
-49 74 -50 138 0 53 4 68 29 104 67 95 205 111 285 34 36 -35 61 -24 28 12
-57 62 -175 82 -254 43z"/>
<path d="M8415 5461 c-166 -77 -162 -325 7 -395 84 -35 197 -11 252 55 36 42
45 68 49 132 4 57 -19 125 -56 166 -54 59 -173 79 -252 42z m172 -22 c40 -13
89 -67 102 -114 42 -152 -81 -278 -233 -240 -98 25 -150 116 -128 223 25 119
130 172 259 131z"/>
<path d="M9044 5473 c-8 -3 0 -40 22 -111 19 -59 48 -153 66 -209 17 -57 33
-101 36 -99 14 14 130 412 122 420 -12 12 -20 -8 -71 -174 -23 -74 -45 -139
-49 -144 -5 -4 -25 45 -45 110 -52 169 -68 211 -81 207z"/>
<path d="M10202 5459 c-4 -10 -6 -100 -5 -201 2 -230 0 -213 16 -200 8 7 12
41 11 109 -2 93 -1 99 18 99 15 0 39 -29 89 -106 38 -60 76 -107 84 -107 19 0
22 -5 -48 103 -56 86 -66 108 -49 110 57 6 92 47 92 109 0 40 -43 94 -77 96
-112 7 -125 6 -131 -12z m159 -35 c12 -11 19 -30 19 -55 0 -53 -35 -79 -105
-79 l-52 0 0 73 c-1 39 2 76 4 81 9 14 113 -1 134 -20z"/>
<path d="M10775 5470 c-3 -4 -4 -98 -4 -208 0 -145 4 -202 12 -205 30 -10 185
1 214 17 36 18 73 64 93 113 21 55 8 157 -26 206 -46 65 -80 79 -190 82 -52 1
-97 -1 -99 -5z m199 -34 c35 -15 79 -65 91 -105 12 -38 7 -114 -10 -154 -8
-20 -31 -48 -50 -63 -31 -24 -47 -28 -121 -31 -46 -2 -84 0 -85 4 -1 12 -1
347 0 356 2 13 140 8 175 -7z"/>
<path d="M11445 5472 c-7 -4 -10 -77 -9 -202 1 -228 1 -223 14 -215 6 3 10 52
10 111 l0 104 115 0 114 0 -1 -100 c-1 -65 3 -105 10 -112 7 -7 13 -10 13 -7
1 2 2 97 3 211 1 159 -2 209 -11 213 -10 3 -13 -17 -13 -85 l0 -90 -115 0
-114 0 -3 90 c-2 59 -7 87 -13 82z"/>
<path d="M13031 5428 c1 -29 1 -111 0 -181 l-1 -129 -27 34 c-15 18 -30 35
-33 38 -11 11 -178 208 -205 242 -17 21 -33 38 -37 38 -3 0 -6 -93 -5 -207 1
-133 6 -207 12 -206 6 2 10 68 10 173 0 93 2 170 5 170 3 0 21 -19 40 -42 31
-37 238 -277 261 -303 6 -5 8 79 7 204 -2 158 -6 215 -15 218 -9 3 -12 -11
-12 -49z"/>
</g>
</svg>
